G04 #@! TF.FileFunction,Copper,L2,Bot,Signal*
%FSLAX46Y46*%
G04 Gerber Fmt 4.6, Leading zero omitted, Abs format (unit mm)*
G04 Created by KiCad (PCBNEW 4.0.3-stable) date 09/06/16 00:26:02*
%MOMM*%
%LPD*%
G01*
G04 APERTURE LIST*
%ADD10C,0.100000*%
%ADD11C,2.600000*%
%ADD12C,2.700020*%
%ADD13R,1.727200X2.032000*%
%ADD14O,1.727200X2.032000*%
%ADD15C,0.800000*%
%ADD16C,0.600000*%
G04 APERTURE END LIST*
D10*
D11*
X102600000Y-93850000D03*
X102600000Y-81150000D03*
D12*
X126200000Y-82400000D03*
X126200000Y-92560000D03*
D13*
X111600000Y-76900000D03*
D14*
X114140000Y-76900000D03*
X116680000Y-76900000D03*
X119220000Y-76900000D03*
D15*
X115000000Y-80400000D03*
X106800000Y-91700000D03*
X126000000Y-96700000D03*
X104400000Y-84200000D03*
X105900000Y-84200000D03*
X105900000Y-85300000D03*
X124000000Y-90200000D03*
X122300000Y-90200000D03*
X122300000Y-91300000D03*
X120400000Y-91200000D03*
X108800000Y-84100000D03*
X119100000Y-83100000D03*
X109300000Y-80200000D03*
X109300000Y-79200000D03*
X109300000Y-78100000D03*
X108100000Y-78100000D03*
X108100000Y-79100000D03*
D16*
X111600000Y-78700000D02*
X111600000Y-76900000D01*
X113300000Y-80400000D02*
X111600000Y-78700000D01*
X115000000Y-80400000D02*
X113300000Y-80400000D01*
X105900000Y-85300000D02*
X105900000Y-84200000D01*
X122300000Y-91300000D02*
X122300000Y-90200000D01*
X109300000Y-78100000D02*
X109300000Y-79200000D01*
X108100000Y-79100000D02*
X108100000Y-78100000D01*
G36*
X112400000Y-77800000D02*
X110703110Y-77800000D01*
X110378543Y-76988583D01*
X110313250Y-76888992D01*
X110214355Y-76822650D01*
X110100000Y-76800000D01*
X107200000Y-76800000D01*
X107083283Y-76823636D01*
X106987868Y-76887868D01*
X106287868Y-77587868D01*
X106222050Y-77687112D01*
X106200000Y-77800000D01*
X106200000Y-83500000D01*
X106223636Y-83616717D01*
X106290819Y-83715042D01*
X106390963Y-83779483D01*
X106500000Y-83800000D01*
X106539445Y-83800000D01*
X106800000Y-84190833D01*
X106800000Y-88500000D01*
X106823636Y-88616717D01*
X106933590Y-88749615D01*
X107533590Y-89149615D01*
X107700000Y-89200000D01*
X108316904Y-89200000D01*
X109100000Y-89669857D01*
X109100000Y-93300000D01*
X109140866Y-93451161D01*
X109840866Y-94651161D01*
X109920093Y-94740069D01*
X110027667Y-94791149D01*
X110100000Y-94800000D01*
X122400000Y-94800000D01*
X122516717Y-94776364D01*
X122621982Y-94701802D01*
X123621982Y-93601802D01*
X123683005Y-93499539D01*
X123700000Y-93400000D01*
X123700000Y-92900000D01*
X127600000Y-92900000D01*
X127600000Y-98224365D01*
X127020812Y-99300000D01*
X105612720Y-99300000D01*
X105000000Y-98763870D01*
X105000000Y-93600000D01*
X104972388Y-93474283D01*
X103800000Y-90934109D01*
X103800000Y-83800000D01*
X104400000Y-83800000D01*
X104516717Y-83776364D01*
X104615042Y-83709181D01*
X104679483Y-83609037D01*
X104700000Y-83500000D01*
X104700000Y-76000000D01*
X112400000Y-76000000D01*
X112400000Y-77800000D01*
X112400000Y-77800000D01*
G37*
X112400000Y-77800000D02*
X110703110Y-77800000D01*
X110378543Y-76988583D01*
X110313250Y-76888992D01*
X110214355Y-76822650D01*
X110100000Y-76800000D01*
X107200000Y-76800000D01*
X107083283Y-76823636D01*
X106987868Y-76887868D01*
X106287868Y-77587868D01*
X106222050Y-77687112D01*
X106200000Y-77800000D01*
X106200000Y-83500000D01*
X106223636Y-83616717D01*
X106290819Y-83715042D01*
X106390963Y-83779483D01*
X106500000Y-83800000D01*
X106539445Y-83800000D01*
X106800000Y-84190833D01*
X106800000Y-88500000D01*
X106823636Y-88616717D01*
X106933590Y-88749615D01*
X107533590Y-89149615D01*
X107700000Y-89200000D01*
X108316904Y-89200000D01*
X109100000Y-89669857D01*
X109100000Y-93300000D01*
X109140866Y-93451161D01*
X109840866Y-94651161D01*
X109920093Y-94740069D01*
X110027667Y-94791149D01*
X110100000Y-94800000D01*
X122400000Y-94800000D01*
X122516717Y-94776364D01*
X122621982Y-94701802D01*
X123621982Y-93601802D01*
X123683005Y-93499539D01*
X123700000Y-93400000D01*
X123700000Y-92900000D01*
X127600000Y-92900000D01*
X127600000Y-98224365D01*
X127020812Y-99300000D01*
X105612720Y-99300000D01*
X105000000Y-98763870D01*
X105000000Y-93600000D01*
X104972388Y-93474283D01*
X103800000Y-90934109D01*
X103800000Y-83800000D01*
X104400000Y-83800000D01*
X104516717Y-83776364D01*
X104615042Y-83709181D01*
X104679483Y-83609037D01*
X104700000Y-83500000D01*
X104700000Y-76000000D01*
X112400000Y-76000000D01*
X112400000Y-77800000D01*
G36*
X124500000Y-76097819D02*
X124500000Y-81278760D01*
X124200337Y-82000428D01*
X124199643Y-82796081D01*
X124500000Y-83523001D01*
X124500000Y-90939445D01*
X123509168Y-91600000D01*
X112124264Y-91600000D01*
X111100000Y-90575736D01*
X111100000Y-89200000D01*
X111076364Y-89083283D01*
X110973624Y-88955348D01*
X108000000Y-86845034D01*
X108000000Y-77800000D01*
X109639445Y-77800000D01*
X109700000Y-77890833D01*
X109700000Y-79000000D01*
X109746130Y-79159844D01*
X111446130Y-81859844D01*
X111528320Y-81946020D01*
X111637561Y-81993430D01*
X111700000Y-82000000D01*
X115600000Y-82000000D01*
X115716717Y-81976364D01*
X115815042Y-81909181D01*
X115874143Y-81821842D01*
X116994962Y-79300000D01*
X118100000Y-79300000D01*
X118216717Y-79276364D01*
X118315042Y-79209181D01*
X118379483Y-79109037D01*
X118400000Y-79000000D01*
X118400000Y-76144188D01*
X118705235Y-75900000D01*
X124038421Y-75900000D01*
X124500000Y-76097819D01*
X124500000Y-76097819D01*
G37*
X124500000Y-76097819D02*
X124500000Y-81278760D01*
X124200337Y-82000428D01*
X124199643Y-82796081D01*
X124500000Y-83523001D01*
X124500000Y-90939445D01*
X123509168Y-91600000D01*
X112124264Y-91600000D01*
X111100000Y-90575736D01*
X111100000Y-89200000D01*
X111076364Y-89083283D01*
X110973624Y-88955348D01*
X108000000Y-86845034D01*
X108000000Y-77800000D01*
X109639445Y-77800000D01*
X109700000Y-77890833D01*
X109700000Y-79000000D01*
X109746130Y-79159844D01*
X111446130Y-81859844D01*
X111528320Y-81946020D01*
X111637561Y-81993430D01*
X111700000Y-82000000D01*
X115600000Y-82000000D01*
X115716717Y-81976364D01*
X115815042Y-81909181D01*
X115874143Y-81821842D01*
X116994962Y-79300000D01*
X118100000Y-79300000D01*
X118216717Y-79276364D01*
X118315042Y-79209181D01*
X118379483Y-79109037D01*
X118400000Y-79000000D01*
X118400000Y-76144188D01*
X118705235Y-75900000D01*
X124038421Y-75900000D01*
X124500000Y-76097819D01*
M02*
