G04 #@! TF.FileFunction,Legend,Top*
%FSLAX46Y46*%
G04 Gerber Fmt 4.6, Leading zero omitted, Abs format (unit mm)*
G04 Created by KiCad (PCBNEW 4.0.3-stable) date 09/06/16 00:26:02*
%MOMM*%
%LPD*%
G01*
G04 APERTURE LIST*
%ADD10C,0.100000*%
%ADD11C,0.150000*%
%ADD12C,0.300000*%
%ADD13C,0.250000*%
%ADD14C,0.400000*%
G04 APERTURE END LIST*
D10*
D11*
X101377381Y-77990476D02*
X102377381Y-77657143D01*
X101377381Y-77323809D01*
X102329762Y-76561904D02*
X102377381Y-76657142D01*
X102377381Y-76847619D01*
X102329762Y-76942857D01*
X102282143Y-76990476D01*
X102186905Y-77038095D01*
X101901190Y-77038095D01*
X101805952Y-76990476D01*
X101758333Y-76942857D01*
X101710714Y-76847619D01*
X101710714Y-76657142D01*
X101758333Y-76561904D01*
X102329762Y-75704761D02*
X102377381Y-75799999D01*
X102377381Y-75990476D01*
X102329762Y-76085714D01*
X102282143Y-76133333D01*
X102186905Y-76180952D01*
X101901190Y-76180952D01*
X101805952Y-76133333D01*
X101758333Y-76085714D01*
X101710714Y-75990476D01*
X101710714Y-75799999D01*
X101758333Y-75704761D01*
X103027381Y-78085714D02*
X103027381Y-77514285D01*
X104027381Y-77800000D02*
X103027381Y-77800000D01*
X103932143Y-76609523D02*
X103979762Y-76657142D01*
X104027381Y-76799999D01*
X104027381Y-76895237D01*
X103979762Y-77038095D01*
X103884524Y-77133333D01*
X103789286Y-77180952D01*
X103598810Y-77228571D01*
X103455952Y-77228571D01*
X103265476Y-77180952D01*
X103170238Y-77133333D01*
X103075000Y-77038095D01*
X103027381Y-76895237D01*
X103027381Y-76799999D01*
X103075000Y-76657142D01*
X103122619Y-76609523D01*
X104027381Y-76180952D02*
X103027381Y-76180952D01*
X104027381Y-75609523D02*
X103455952Y-76038095D01*
X103027381Y-75609523D02*
X103598810Y-76180952D01*
X104677381Y-78347619D02*
X104677381Y-77776190D01*
X105677381Y-78061905D02*
X104677381Y-78061905D01*
X105677381Y-77442857D02*
X104677381Y-77442857D01*
X104677381Y-77204762D01*
X104725000Y-77061904D01*
X104820238Y-76966666D01*
X104915476Y-76919047D01*
X105105952Y-76871428D01*
X105248810Y-76871428D01*
X105439286Y-76919047D01*
X105534524Y-76966666D01*
X105629762Y-77061904D01*
X105677381Y-77204762D01*
X105677381Y-77442857D01*
X105677381Y-76442857D02*
X104677381Y-76442857D01*
X104677381Y-75776191D02*
X104677381Y-75585714D01*
X104725000Y-75490476D01*
X104820238Y-75395238D01*
X105010714Y-75347619D01*
X105344048Y-75347619D01*
X105534524Y-75395238D01*
X105629762Y-75490476D01*
X105677381Y-75585714D01*
X105677381Y-75776191D01*
X105629762Y-75871429D01*
X105534524Y-75966667D01*
X105344048Y-76014286D01*
X105010714Y-76014286D01*
X104820238Y-75966667D01*
X104725000Y-75871429D01*
X104677381Y-75776191D01*
X106375000Y-77561904D02*
X106327381Y-77657142D01*
X106327381Y-77799999D01*
X106375000Y-77942857D01*
X106470238Y-78038095D01*
X106565476Y-78085714D01*
X106755952Y-78133333D01*
X106898810Y-78133333D01*
X107089286Y-78085714D01*
X107184524Y-78038095D01*
X107279762Y-77942857D01*
X107327381Y-77799999D01*
X107327381Y-77704761D01*
X107279762Y-77561904D01*
X107232143Y-77514285D01*
X106898810Y-77514285D01*
X106898810Y-77704761D01*
X107327381Y-77085714D02*
X106327381Y-77085714D01*
X107327381Y-76514285D01*
X106327381Y-76514285D01*
X107327381Y-76038095D02*
X106327381Y-76038095D01*
X106327381Y-75800000D01*
X106375000Y-75657142D01*
X106470238Y-75561904D01*
X106565476Y-75514285D01*
X106755952Y-75466666D01*
X106898810Y-75466666D01*
X107089286Y-75514285D01*
X107184524Y-75561904D01*
X107279762Y-75657142D01*
X107327381Y-75800000D01*
X107327381Y-76038095D01*
X124550000Y-77750000D02*
X124550000Y-76050000D01*
X124550000Y-76050000D02*
X123650000Y-76900000D01*
X123650000Y-76900000D02*
X124550000Y-77700000D01*
X123650000Y-77750000D02*
X123650000Y-76050000D01*
X121950000Y-77750000D02*
X121950000Y-76050000D01*
X122150000Y-77750000D02*
X126050000Y-77750000D01*
X126050000Y-77750000D02*
X126050000Y-76050000D01*
X126050000Y-76050000D02*
X122150000Y-76050000D01*
X122150000Y-76050000D02*
X122150000Y-77750000D01*
D12*
X102640000Y-77915000D02*
X102640000Y-79185000D01*
X102640000Y-95615000D02*
X102640000Y-96885000D01*
X102005000Y-96250000D02*
X103275000Y-96250000D01*
D11*
X121275000Y-94700000D02*
X121275000Y-96700000D01*
X123325000Y-96700000D02*
X123325000Y-94700000D01*
X118150000Y-82300000D02*
X118150000Y-81300000D01*
X116450000Y-81300000D02*
X116450000Y-82300000D01*
X112870000Y-78170000D02*
X120490000Y-78170000D01*
X112870000Y-75630000D02*
X120490000Y-75630000D01*
X110050000Y-75350000D02*
X111600000Y-75350000D01*
X120490000Y-78170000D02*
X120490000Y-75630000D01*
X112870000Y-75630000D02*
X112870000Y-78170000D01*
X111600000Y-78450000D02*
X110050000Y-78450000D01*
X110050000Y-78450000D02*
X110050000Y-75350000D01*
X106449760Y-79900840D02*
X106449760Y-79949100D01*
X107150800Y-82699820D02*
X106449760Y-82699820D01*
X106449760Y-82699820D02*
X106449760Y-82450900D01*
X106449760Y-79900840D02*
X106449760Y-79700180D01*
X106449760Y-79700180D02*
X107150800Y-79700180D01*
X125650240Y-88899160D02*
X125650240Y-88850900D01*
X124949200Y-86100180D02*
X125650240Y-86100180D01*
X125650240Y-86100180D02*
X125650240Y-86349100D01*
X125650240Y-88899160D02*
X125650240Y-89099820D01*
X125650240Y-89099820D02*
X124949200Y-89099820D01*
X121275000Y-87400000D02*
X121275000Y-88600000D01*
X119525000Y-88600000D02*
X119525000Y-87400000D01*
X106925000Y-97800000D02*
X106925000Y-96600000D01*
X108675000Y-96600000D02*
X108675000Y-97800000D01*
X110925000Y-97800000D02*
X110925000Y-96600000D01*
X112675000Y-96600000D02*
X112675000Y-97800000D01*
X122475000Y-81200000D02*
X122475000Y-82400000D01*
X120725000Y-82400000D02*
X120725000Y-81200000D01*
X112625000Y-82400000D02*
X112625000Y-81200000D01*
X114375000Y-81200000D02*
X114375000Y-82400000D01*
X119200000Y-95300000D02*
X119000000Y-95300000D01*
X119200000Y-95300000D02*
X119200000Y-95800000D01*
X115400000Y-95800000D02*
X115400000Y-95300000D01*
X115400000Y-95300000D02*
X115600000Y-95300000D01*
X116300000Y-99300000D02*
X115400000Y-99300000D01*
X115400000Y-99300000D02*
X115400000Y-98800000D01*
X118300000Y-99300000D02*
X119200000Y-99300000D01*
X119200000Y-99300000D02*
X119200000Y-98800000D01*
X100600000Y-86000000D02*
X101200000Y-86000000D01*
X101200000Y-86000000D02*
X101200000Y-85000000D01*
X101200000Y-88900000D02*
X101200000Y-90000000D01*
X101200000Y-88900000D02*
X100600000Y-88900000D01*
D13*
X104541421Y-84400000D02*
G75*
G03X104541421Y-84400000I-141421J0D01*
G01*
D11*
X102200000Y-91000000D02*
X101200000Y-91000000D01*
X101200000Y-91000000D02*
X101200000Y-90000000D01*
X104000000Y-90300000D02*
X104000000Y-91000000D01*
X104000000Y-91000000D02*
X103000000Y-91000000D01*
X103000000Y-84000000D02*
X104000000Y-84000000D01*
X104000000Y-84000000D02*
X104000000Y-84700000D01*
X101200000Y-84000000D02*
X102200000Y-84000000D01*
X101200000Y-84000000D02*
X101200000Y-85000000D01*
D14*
X109100000Y-93000000D02*
X108000000Y-93000000D01*
X108000000Y-93000000D02*
X108000000Y-91700000D01*
D11*
X113400000Y-91700000D02*
X113400000Y-93000000D01*
X113400000Y-93000000D02*
X112300000Y-93000000D01*
X112300000Y-85200000D02*
X113400000Y-85200000D01*
X113400000Y-85200000D02*
X113400000Y-86500000D01*
X108000000Y-86500000D02*
X108000000Y-85300000D01*
X108000000Y-85300000D02*
X108000000Y-85200000D01*
X108000000Y-85200000D02*
X109100000Y-85200000D01*
X124552381Y-79638095D02*
X123552381Y-79638095D01*
X123552381Y-79400000D01*
X123600000Y-79257142D01*
X123695238Y-79161904D01*
X123790476Y-79114285D01*
X123980952Y-79066666D01*
X124123810Y-79066666D01*
X124314286Y-79114285D01*
X124409524Y-79161904D01*
X124504762Y-79257142D01*
X124552381Y-79400000D01*
X124552381Y-79638095D01*
X124552381Y-78114285D02*
X124552381Y-78685714D01*
X124552381Y-78400000D02*
X123552381Y-78400000D01*
X123695238Y-78495238D01*
X123790476Y-78590476D01*
X123838095Y-78685714D01*
X101027471Y-99010685D02*
X101075090Y-98867828D01*
X101122710Y-98820209D01*
X101217948Y-98772590D01*
X101360805Y-98772590D01*
X101456043Y-98820209D01*
X101503662Y-98867828D01*
X101551281Y-98963066D01*
X101551281Y-99344019D01*
X100551281Y-99344019D01*
X100551281Y-99010685D01*
X100598900Y-98915447D01*
X100646519Y-98867828D01*
X100741757Y-98820209D01*
X100836995Y-98820209D01*
X100932233Y-98867828D01*
X100979852Y-98915447D01*
X101027471Y-99010685D01*
X101027471Y-99344019D01*
X101265567Y-98391638D02*
X101265567Y-97915447D01*
X101551281Y-98486876D02*
X100551281Y-98153543D01*
X101551281Y-97820209D01*
X100551281Y-97629733D02*
X100551281Y-97058304D01*
X101551281Y-97344019D02*
X100551281Y-97344019D01*
X101551281Y-96201161D02*
X101551281Y-96772590D01*
X101551281Y-96486876D02*
X100551281Y-96486876D01*
X100694138Y-96582114D01*
X100789376Y-96677352D01*
X100836995Y-96772590D01*
X120657143Y-96066666D02*
X120704762Y-96114285D01*
X120752381Y-96257142D01*
X120752381Y-96352380D01*
X120704762Y-96495238D01*
X120609524Y-96590476D01*
X120514286Y-96638095D01*
X120323810Y-96685714D01*
X120180952Y-96685714D01*
X119990476Y-96638095D01*
X119895238Y-96590476D01*
X119800000Y-96495238D01*
X119752381Y-96352380D01*
X119752381Y-96257142D01*
X119800000Y-96114285D01*
X119847619Y-96066666D01*
X120752381Y-95114285D02*
X120752381Y-95685714D01*
X120752381Y-95400000D02*
X119752381Y-95400000D01*
X119895238Y-95495238D01*
X119990476Y-95590476D01*
X120038095Y-95685714D01*
X115857143Y-81966666D02*
X115904762Y-82014285D01*
X115952381Y-82157142D01*
X115952381Y-82252380D01*
X115904762Y-82395238D01*
X115809524Y-82490476D01*
X115714286Y-82538095D01*
X115523810Y-82585714D01*
X115380952Y-82585714D01*
X115190476Y-82538095D01*
X115095238Y-82490476D01*
X115000000Y-82395238D01*
X114952381Y-82252380D01*
X114952381Y-82157142D01*
X115000000Y-82014285D01*
X115047619Y-81966666D01*
X115047619Y-81585714D02*
X115000000Y-81538095D01*
X114952381Y-81442857D01*
X114952381Y-81204761D01*
X115000000Y-81109523D01*
X115047619Y-81061904D01*
X115142857Y-81014285D01*
X115238095Y-81014285D01*
X115380952Y-81061904D01*
X115952381Y-81633333D01*
X115952381Y-81014285D01*
X126552381Y-95938095D02*
X125552381Y-95938095D01*
X125552381Y-95557142D01*
X125600000Y-95461904D01*
X125647619Y-95414285D01*
X125742857Y-95366666D01*
X125885714Y-95366666D01*
X125980952Y-95414285D01*
X126028571Y-95461904D01*
X126076190Y-95557142D01*
X126076190Y-95938095D01*
X126552381Y-94414285D02*
X126552381Y-94985714D01*
X126552381Y-94700000D02*
X125552381Y-94700000D01*
X125695238Y-94795238D01*
X125790476Y-94890476D01*
X125838095Y-94985714D01*
X109352381Y-77038095D02*
X108352381Y-77038095D01*
X108352381Y-76657142D01*
X108400000Y-76561904D01*
X108447619Y-76514285D01*
X108542857Y-76466666D01*
X108685714Y-76466666D01*
X108780952Y-76514285D01*
X108828571Y-76561904D01*
X108876190Y-76657142D01*
X108876190Y-77038095D01*
X108352381Y-76133333D02*
X108352381Y-75514285D01*
X108733333Y-75847619D01*
X108733333Y-75704761D01*
X108780952Y-75609523D01*
X108828571Y-75561904D01*
X108923810Y-75514285D01*
X109161905Y-75514285D01*
X109257143Y-75561904D01*
X109304762Y-75609523D01*
X109352381Y-75704761D01*
X109352381Y-75990476D01*
X109304762Y-76085714D01*
X109257143Y-76133333D01*
X105247619Y-81295238D02*
X105200000Y-81390476D01*
X105104762Y-81485714D01*
X104961905Y-81628571D01*
X104914286Y-81723810D01*
X104914286Y-81819048D01*
X105152381Y-81771429D02*
X105104762Y-81866667D01*
X105009524Y-81961905D01*
X104819048Y-82009524D01*
X104485714Y-82009524D01*
X104295238Y-81961905D01*
X104200000Y-81866667D01*
X104152381Y-81771429D01*
X104152381Y-81580952D01*
X104200000Y-81485714D01*
X104295238Y-81390476D01*
X104485714Y-81342857D01*
X104819048Y-81342857D01*
X105009524Y-81390476D01*
X105104762Y-81485714D01*
X105152381Y-81580952D01*
X105152381Y-81771429D01*
X105152381Y-80390476D02*
X105152381Y-80961905D01*
X105152381Y-80676191D02*
X104152381Y-80676191D01*
X104295238Y-80771429D01*
X104390476Y-80866667D01*
X104438095Y-80961905D01*
X122947619Y-87695238D02*
X122900000Y-87790476D01*
X122804762Y-87885714D01*
X122661905Y-88028571D01*
X122614286Y-88123810D01*
X122614286Y-88219048D01*
X122852381Y-88171429D02*
X122804762Y-88266667D01*
X122709524Y-88361905D01*
X122519048Y-88409524D01*
X122185714Y-88409524D01*
X121995238Y-88361905D01*
X121900000Y-88266667D01*
X121852381Y-88171429D01*
X121852381Y-87980952D01*
X121900000Y-87885714D01*
X121995238Y-87790476D01*
X122185714Y-87742857D01*
X122519048Y-87742857D01*
X122709524Y-87790476D01*
X122804762Y-87885714D01*
X122852381Y-87980952D01*
X122852381Y-88171429D01*
X121947619Y-87361905D02*
X121900000Y-87314286D01*
X121852381Y-87219048D01*
X121852381Y-86980952D01*
X121900000Y-86885714D01*
X121947619Y-86838095D01*
X122042857Y-86790476D01*
X122138095Y-86790476D01*
X122280952Y-86838095D01*
X122852381Y-87409524D01*
X122852381Y-86790476D01*
X118752381Y-88166666D02*
X118276190Y-88500000D01*
X118752381Y-88738095D02*
X117752381Y-88738095D01*
X117752381Y-88357142D01*
X117800000Y-88261904D01*
X117847619Y-88214285D01*
X117942857Y-88166666D01*
X118085714Y-88166666D01*
X118180952Y-88214285D01*
X118228571Y-88261904D01*
X118276190Y-88357142D01*
X118276190Y-88738095D01*
X118752381Y-87214285D02*
X118752381Y-87785714D01*
X118752381Y-87500000D02*
X117752381Y-87500000D01*
X117895238Y-87595238D01*
X117990476Y-87690476D01*
X118038095Y-87785714D01*
X106452381Y-97366666D02*
X105976190Y-97700000D01*
X106452381Y-97938095D02*
X105452381Y-97938095D01*
X105452381Y-97557142D01*
X105500000Y-97461904D01*
X105547619Y-97414285D01*
X105642857Y-97366666D01*
X105785714Y-97366666D01*
X105880952Y-97414285D01*
X105928571Y-97461904D01*
X105976190Y-97557142D01*
X105976190Y-97938095D01*
X105547619Y-96985714D02*
X105500000Y-96938095D01*
X105452381Y-96842857D01*
X105452381Y-96604761D01*
X105500000Y-96509523D01*
X105547619Y-96461904D01*
X105642857Y-96414285D01*
X105738095Y-96414285D01*
X105880952Y-96461904D01*
X106452381Y-97033333D01*
X106452381Y-96414285D01*
X110452381Y-97366666D02*
X109976190Y-97700000D01*
X110452381Y-97938095D02*
X109452381Y-97938095D01*
X109452381Y-97557142D01*
X109500000Y-97461904D01*
X109547619Y-97414285D01*
X109642857Y-97366666D01*
X109785714Y-97366666D01*
X109880952Y-97414285D01*
X109928571Y-97461904D01*
X109976190Y-97557142D01*
X109976190Y-97938095D01*
X109452381Y-97033333D02*
X109452381Y-96414285D01*
X109833333Y-96747619D01*
X109833333Y-96604761D01*
X109880952Y-96509523D01*
X109928571Y-96461904D01*
X110023810Y-96414285D01*
X110261905Y-96414285D01*
X110357143Y-96461904D01*
X110404762Y-96509523D01*
X110452381Y-96604761D01*
X110452381Y-96890476D01*
X110404762Y-96985714D01*
X110357143Y-97033333D01*
X119952381Y-81966666D02*
X119476190Y-82300000D01*
X119952381Y-82538095D02*
X118952381Y-82538095D01*
X118952381Y-82157142D01*
X119000000Y-82061904D01*
X119047619Y-82014285D01*
X119142857Y-81966666D01*
X119285714Y-81966666D01*
X119380952Y-82014285D01*
X119428571Y-82061904D01*
X119476190Y-82157142D01*
X119476190Y-82538095D01*
X119285714Y-81109523D02*
X119952381Y-81109523D01*
X118904762Y-81347619D02*
X119619048Y-81585714D01*
X119619048Y-80966666D01*
X112152381Y-81966666D02*
X111676190Y-82300000D01*
X112152381Y-82538095D02*
X111152381Y-82538095D01*
X111152381Y-82157142D01*
X111200000Y-82061904D01*
X111247619Y-82014285D01*
X111342857Y-81966666D01*
X111485714Y-81966666D01*
X111580952Y-82014285D01*
X111628571Y-82061904D01*
X111676190Y-82157142D01*
X111676190Y-82538095D01*
X111152381Y-81061904D02*
X111152381Y-81538095D01*
X111628571Y-81585714D01*
X111580952Y-81538095D01*
X111533333Y-81442857D01*
X111533333Y-81204761D01*
X111580952Y-81109523D01*
X111628571Y-81061904D01*
X111723810Y-81014285D01*
X111961905Y-81014285D01*
X112057143Y-81061904D01*
X112104762Y-81109523D01*
X112152381Y-81204761D01*
X112152381Y-81442857D01*
X112104762Y-81538095D01*
X112057143Y-81585714D01*
X114552381Y-97895238D02*
X114076190Y-98228572D01*
X114552381Y-98466667D02*
X113552381Y-98466667D01*
X113552381Y-98085714D01*
X113600000Y-97990476D01*
X113647619Y-97942857D01*
X113742857Y-97895238D01*
X113885714Y-97895238D01*
X113980952Y-97942857D01*
X114028571Y-97990476D01*
X114076190Y-98085714D01*
X114076190Y-98466667D01*
X113552381Y-97609524D02*
X114552381Y-97276191D01*
X113552381Y-96942857D01*
X114552381Y-96085714D02*
X114552381Y-96657143D01*
X114552381Y-96371429D02*
X113552381Y-96371429D01*
X113695238Y-96466667D01*
X113790476Y-96561905D01*
X113838095Y-96657143D01*
X105504762Y-93533333D02*
X105552381Y-93390476D01*
X105552381Y-93152380D01*
X105504762Y-93057142D01*
X105457143Y-93009523D01*
X105361905Y-92961904D01*
X105266667Y-92961904D01*
X105171429Y-93009523D01*
X105123810Y-93057142D01*
X105076190Y-93152380D01*
X105028571Y-93342857D01*
X104980952Y-93438095D01*
X104933333Y-93485714D01*
X104838095Y-93533333D01*
X104742857Y-93533333D01*
X104647619Y-93485714D01*
X104600000Y-93438095D01*
X104552381Y-93342857D01*
X104552381Y-93104761D01*
X104600000Y-92961904D01*
X104552381Y-92628571D02*
X105552381Y-92390476D01*
X104838095Y-92199999D01*
X105552381Y-92009523D01*
X104552381Y-91771428D01*
X105552381Y-90866666D02*
X105552381Y-91438095D01*
X105552381Y-91152381D02*
X104552381Y-91152381D01*
X104695238Y-91247619D01*
X104790476Y-91342857D01*
X104838095Y-91438095D01*
X106137857Y-90014286D02*
X107109286Y-90014286D01*
X107223571Y-89957143D01*
X107280714Y-89900000D01*
X107337857Y-89785714D01*
X107337857Y-89557143D01*
X107280714Y-89442857D01*
X107223571Y-89385714D01*
X107109286Y-89328571D01*
X106137857Y-89328571D01*
X107337857Y-88128571D02*
X107337857Y-88814286D01*
X107337857Y-88471428D02*
X106137857Y-88471428D01*
X106309286Y-88585714D01*
X106423571Y-88700000D01*
X106480714Y-88814286D01*
X116052381Y-88938095D02*
X115052381Y-88938095D01*
X115052381Y-88557142D01*
X115100000Y-88461904D01*
X115147619Y-88414285D01*
X115242857Y-88366666D01*
X115385714Y-88366666D01*
X115480952Y-88414285D01*
X115528571Y-88461904D01*
X115576190Y-88557142D01*
X115576190Y-88938095D01*
X115147619Y-87985714D02*
X115100000Y-87938095D01*
X115052381Y-87842857D01*
X115052381Y-87604761D01*
X115100000Y-87509523D01*
X115147619Y-87461904D01*
X115242857Y-87414285D01*
X115338095Y-87414285D01*
X115480952Y-87461904D01*
X116052381Y-88033333D01*
X116052381Y-87414285D01*
M02*
