G04 #@! TF.FileFunction,Copper,L1,Top,Signal*
%FSLAX46Y46*%
G04 Gerber Fmt 4.6, Leading zero omitted, Abs format (unit mm)*
G04 Created by KiCad (PCBNEW 4.0.3-stable) date 2016 September 06, Tuesday 12:50:02*
%MOMM*%
%LPD*%
G01*
G04 APERTURE LIST*
%ADD10C,0.100000*%
%ADD11R,1.200000X1.200000*%
%ADD12C,2.600000*%
%ADD13R,1.600000X2.000000*%
%ADD14R,1.250000X1.500000*%
%ADD15C,2.700020*%
%ADD16R,1.727200X2.032000*%
%ADD17O,1.727200X2.032000*%
%ADD18R,0.800100X0.800100*%
%ADD19R,1.300000X1.500000*%
%ADD20R,1.600000X1.500000*%
%ADD21R,1.500000X0.700000*%
%ADD22R,0.600000X2.000000*%
%ADD23C,1.500000*%
%ADD24C,0.800000*%
%ADD25C,0.600000*%
%ADD26C,0.250000*%
G04 APERTURE END LIST*
D10*
D11*
X125300000Y-76900000D03*
X122900000Y-76900000D03*
D12*
X102600000Y-93850000D03*
X102600000Y-81150000D03*
D13*
X122300000Y-97700000D03*
X122300000Y-93700000D03*
D14*
X117300000Y-80550000D03*
X117300000Y-83050000D03*
D15*
X126200000Y-82400000D03*
X126200000Y-92560000D03*
D16*
X111600000Y-76900000D03*
D17*
X114140000Y-76900000D03*
X116680000Y-76900000D03*
X119220000Y-76900000D03*
D18*
X108100760Y-82150000D03*
X108100760Y-80250000D03*
X106101780Y-81200000D03*
X123999240Y-86650000D03*
X123999240Y-88550000D03*
X125998220Y-87600000D03*
D19*
X120400000Y-89350000D03*
X120400000Y-86650000D03*
X107800000Y-95850000D03*
X107800000Y-98550000D03*
X111800000Y-95850000D03*
X111800000Y-98550000D03*
X121600000Y-83150000D03*
X121600000Y-80450000D03*
X113500000Y-80450000D03*
X113500000Y-83150000D03*
D11*
X118300000Y-95500000D03*
X116300000Y-95500000D03*
D20*
X117300000Y-98750000D03*
D21*
X104350000Y-85250000D03*
X104350000Y-88250000D03*
X104350000Y-89750000D03*
D22*
X108795000Y-86500000D03*
X108795000Y-91700000D03*
X110065000Y-86500000D03*
X110065000Y-91700000D03*
X111335000Y-86500000D03*
X111335000Y-91700000D03*
X112605000Y-86500000D03*
X112605000Y-91700000D03*
D23*
X115600000Y-90200000D03*
D24*
X115000000Y-80400000D03*
X106800000Y-91700000D03*
X126000000Y-96700000D03*
X104400000Y-84200000D03*
X105900000Y-84200000D03*
X105900000Y-85300000D03*
X124000000Y-90200000D03*
X122300000Y-90200000D03*
X122300000Y-91300000D03*
X120400000Y-91200000D03*
X108800000Y-84100000D03*
X119100000Y-83100000D03*
X109300000Y-80200000D03*
X109300000Y-79200000D03*
X109300000Y-78100000D03*
X108100000Y-78100000D03*
X108100000Y-79100000D03*
D25*
X113500000Y-80450000D02*
X114950000Y-80450000D01*
X114950000Y-80450000D02*
X115000000Y-80400000D01*
X126200000Y-92560000D02*
X126200000Y-92800000D01*
X126200000Y-92800000D02*
X124900000Y-94100000D01*
X124900000Y-94100000D02*
X124900000Y-95600000D01*
X124900000Y-95600000D02*
X126000000Y-96700000D01*
X108795000Y-91700000D02*
X106800000Y-91700000D01*
X122300000Y-97700000D02*
X125000000Y-97700000D01*
X125000000Y-97700000D02*
X126000000Y-96700000D01*
X104350000Y-85250000D02*
X104350000Y-84250000D01*
X104350000Y-84250000D02*
X104400000Y-84200000D01*
X105900000Y-84200000D02*
X107000000Y-84200000D01*
X108100760Y-83099240D02*
X108100760Y-82150000D01*
X107000000Y-84200000D02*
X108100760Y-83099240D01*
X104350000Y-85250000D02*
X105850000Y-85250000D01*
X104350000Y-84650000D02*
X104350000Y-85250000D01*
X104800000Y-84200000D02*
X104350000Y-84650000D01*
X105900000Y-84200000D02*
X104800000Y-84200000D01*
X105850000Y-85250000D02*
X105900000Y-85300000D01*
X123999240Y-88550000D02*
X123999240Y-90199240D01*
X123999240Y-90199240D02*
X124000000Y-90200000D01*
X122300000Y-93700000D02*
X122300000Y-91300000D01*
X122200000Y-90100000D02*
X122200000Y-89350000D01*
X122300000Y-90200000D02*
X122200000Y-90100000D01*
X122300000Y-93700000D02*
X120500000Y-93700000D01*
X120400000Y-93600000D02*
X120400000Y-91200000D01*
X120500000Y-93700000D02*
X120400000Y-93600000D01*
X108795000Y-86500000D02*
X108795000Y-84105000D01*
X108795000Y-84105000D02*
X108800000Y-84100000D01*
X117300000Y-83050000D02*
X119050000Y-83050000D01*
X119050000Y-83050000D02*
X119100000Y-83100000D01*
X120400000Y-89350000D02*
X122200000Y-89350000D01*
X122200000Y-89350000D02*
X122450000Y-89350000D01*
X122450000Y-89350000D02*
X123250000Y-88550000D01*
X123250000Y-88550000D02*
X123999240Y-88550000D01*
X119220000Y-76900000D02*
X122900000Y-76900000D01*
X108100760Y-80250000D02*
X108100760Y-79100760D01*
X109300000Y-79200000D02*
X109300000Y-80200000D01*
X108100000Y-78100000D02*
X109300000Y-78100000D01*
X108100760Y-79100760D02*
X108100000Y-79100000D01*
X117300000Y-80550000D02*
X116350000Y-80550000D01*
X115350000Y-83150000D02*
X113500000Y-83150000D01*
X115900000Y-82600000D02*
X115350000Y-83150000D01*
X115900000Y-81000000D02*
X115900000Y-82600000D01*
X116350000Y-80550000D02*
X115900000Y-81000000D01*
X117300000Y-80550000D02*
X117300000Y-78900000D01*
X116680000Y-78280000D02*
X116680000Y-76900000D01*
X117300000Y-78900000D02*
X116680000Y-78280000D01*
X111335000Y-86500000D02*
X111335000Y-84065000D01*
X111751970Y-83574230D02*
X113500000Y-83150000D01*
X111335000Y-84065000D02*
X111751970Y-83574230D01*
X121600000Y-80450000D02*
X123350000Y-80450000D01*
X125200000Y-78600000D02*
X125200000Y-77000000D01*
X123350000Y-80450000D02*
X125200000Y-78600000D01*
X125200000Y-77000000D02*
X125300000Y-76900000D01*
X125998220Y-87600000D02*
X125998220Y-85001780D01*
X124800000Y-83800000D02*
X126200000Y-82400000D01*
X124800000Y-83803560D02*
X124800000Y-83800000D01*
X125998220Y-85001780D02*
X124800000Y-83803560D01*
X112605000Y-91700000D02*
X114100000Y-91700000D01*
X114100000Y-91700000D02*
X115600000Y-90200000D01*
X114140000Y-76900000D02*
X114140000Y-78060000D01*
X110065000Y-83435000D02*
X110065000Y-86500000D01*
X111200000Y-82300000D02*
X110065000Y-83435000D01*
X111200000Y-79800000D02*
X111200000Y-82300000D01*
X112400000Y-78900000D02*
X111200000Y-79800000D01*
X113600000Y-78900000D02*
X112400000Y-78900000D01*
X114140000Y-78060000D02*
X113600000Y-78900000D01*
X120400000Y-86650000D02*
X123999240Y-86650000D01*
X118300000Y-95500000D02*
X118300000Y-87300000D01*
X118950000Y-86650000D02*
X120400000Y-86650000D01*
X118300000Y-87300000D02*
X118950000Y-86650000D01*
X110065000Y-91700000D02*
X110065000Y-93135000D01*
X110065000Y-93135000D02*
X108150000Y-95850000D01*
X108150000Y-95850000D02*
X107800000Y-95850000D01*
X117300000Y-98750000D02*
X117300000Y-96500000D01*
X116300000Y-96100000D02*
X116300000Y-95500000D01*
X116400000Y-96200000D02*
X116300000Y-96100000D01*
X117000000Y-96200000D02*
X116400000Y-96200000D01*
X117300000Y-96500000D02*
X117000000Y-96200000D01*
X111800000Y-98550000D02*
X117100000Y-98550000D01*
X117100000Y-98550000D02*
X117300000Y-98750000D01*
X107800000Y-98550000D02*
X111800000Y-98550000D01*
X111335000Y-91700000D02*
X111335000Y-95385000D01*
X111335000Y-95385000D02*
X111800000Y-95850000D01*
X121600000Y-83150000D02*
X120550000Y-83150000D01*
X114100000Y-86500000D02*
X112605000Y-86500000D01*
X115500000Y-85100000D02*
X114100000Y-86500000D01*
X119300000Y-85100000D02*
X115500000Y-85100000D01*
X120300000Y-84100000D02*
X119300000Y-85100000D01*
X120300000Y-83400000D02*
X120300000Y-84100000D01*
X120550000Y-83150000D02*
X120300000Y-83400000D01*
X102650000Y-81200000D02*
X102600000Y-81150000D01*
D26*
X102650000Y-81200000D02*
X102600000Y-81150000D01*
D25*
G36*
X102380237Y-87099808D02*
X102817844Y-87100190D01*
X103060322Y-87000000D01*
X105529180Y-87000000D01*
X106100000Y-87285410D01*
X106100000Y-88506826D01*
X105700000Y-88688644D01*
X105700000Y-88500000D01*
X105550000Y-88350000D01*
X104450000Y-88350000D01*
X104450000Y-88370000D01*
X104250000Y-88370000D01*
X104250000Y-88350000D01*
X104230000Y-88350000D01*
X104230000Y-88150000D01*
X104250000Y-88150000D01*
X104250000Y-87450000D01*
X104450000Y-87450000D01*
X104450000Y-88150000D01*
X105550000Y-88150000D01*
X105700000Y-88000000D01*
X105700000Y-87780653D01*
X105608656Y-87560128D01*
X105439873Y-87391345D01*
X105219348Y-87300000D01*
X104600000Y-87300000D01*
X104450000Y-87450000D01*
X104250000Y-87450000D01*
X104100000Y-87300000D01*
X103480652Y-87300000D01*
X103260127Y-87391345D01*
X103091344Y-87560128D01*
X103000000Y-87780653D01*
X103000000Y-87975033D01*
X102819763Y-87900192D01*
X102382156Y-87899810D01*
X101977714Y-88066922D01*
X101668009Y-88376087D01*
X101500192Y-88780237D01*
X101499810Y-89217844D01*
X101666922Y-89622286D01*
X101976087Y-89931991D01*
X102380237Y-90099808D01*
X102817844Y-90100190D01*
X102937266Y-90050846D01*
X102937266Y-90100000D01*
X102982590Y-90340876D01*
X103124947Y-90562105D01*
X103342159Y-90710520D01*
X103600000Y-90762734D01*
X105000000Y-90762734D01*
X105000000Y-94026186D01*
X104018479Y-95900000D01*
X101350000Y-95900000D01*
X100869210Y-95258946D01*
X100843724Y-95182488D01*
X101408933Y-95182488D01*
X101543749Y-95473935D01*
X102245604Y-95754530D01*
X103001413Y-95745178D01*
X103656251Y-95473935D01*
X103791067Y-95182488D01*
X102600000Y-93991421D01*
X101408933Y-95182488D01*
X100843724Y-95182488D01*
X100650500Y-94602817D01*
X100650500Y-93495604D01*
X100695470Y-93495604D01*
X100704822Y-94251413D01*
X100976065Y-94906251D01*
X101267512Y-95041067D01*
X102458579Y-93850000D01*
X102741421Y-93850000D01*
X103932488Y-95041067D01*
X104223935Y-94906251D01*
X104504530Y-94204396D01*
X104495178Y-93448587D01*
X104223935Y-92793749D01*
X103932488Y-92658933D01*
X102741421Y-93850000D01*
X102458579Y-93850000D01*
X101267512Y-92658933D01*
X100976065Y-92793749D01*
X100695470Y-93495604D01*
X100650500Y-93495604D01*
X100650500Y-92517512D01*
X101408933Y-92517512D01*
X102600000Y-93708579D01*
X103791067Y-92517512D01*
X103656251Y-92226065D01*
X102954396Y-91945470D01*
X102198587Y-91954822D01*
X101543749Y-92226065D01*
X101408933Y-92517512D01*
X100650500Y-92517512D01*
X100650500Y-87450847D01*
X101294568Y-87000000D01*
X102139872Y-87000000D01*
X102380237Y-87099808D01*
X102380237Y-87099808D01*
G37*
X102380237Y-87099808D02*
X102817844Y-87100190D01*
X103060322Y-87000000D01*
X105529180Y-87000000D01*
X106100000Y-87285410D01*
X106100000Y-88506826D01*
X105700000Y-88688644D01*
X105700000Y-88500000D01*
X105550000Y-88350000D01*
X104450000Y-88350000D01*
X104450000Y-88370000D01*
X104250000Y-88370000D01*
X104250000Y-88350000D01*
X104230000Y-88350000D01*
X104230000Y-88150000D01*
X104250000Y-88150000D01*
X104250000Y-87450000D01*
X104450000Y-87450000D01*
X104450000Y-88150000D01*
X105550000Y-88150000D01*
X105700000Y-88000000D01*
X105700000Y-87780653D01*
X105608656Y-87560128D01*
X105439873Y-87391345D01*
X105219348Y-87300000D01*
X104600000Y-87300000D01*
X104450000Y-87450000D01*
X104250000Y-87450000D01*
X104100000Y-87300000D01*
X103480652Y-87300000D01*
X103260127Y-87391345D01*
X103091344Y-87560128D01*
X103000000Y-87780653D01*
X103000000Y-87975033D01*
X102819763Y-87900192D01*
X102382156Y-87899810D01*
X101977714Y-88066922D01*
X101668009Y-88376087D01*
X101500192Y-88780237D01*
X101499810Y-89217844D01*
X101666922Y-89622286D01*
X101976087Y-89931991D01*
X102380237Y-90099808D01*
X102817844Y-90100190D01*
X102937266Y-90050846D01*
X102937266Y-90100000D01*
X102982590Y-90340876D01*
X103124947Y-90562105D01*
X103342159Y-90710520D01*
X103600000Y-90762734D01*
X105000000Y-90762734D01*
X105000000Y-94026186D01*
X104018479Y-95900000D01*
X101350000Y-95900000D01*
X100869210Y-95258946D01*
X100843724Y-95182488D01*
X101408933Y-95182488D01*
X101543749Y-95473935D01*
X102245604Y-95754530D01*
X103001413Y-95745178D01*
X103656251Y-95473935D01*
X103791067Y-95182488D01*
X102600000Y-93991421D01*
X101408933Y-95182488D01*
X100843724Y-95182488D01*
X100650500Y-94602817D01*
X100650500Y-93495604D01*
X100695470Y-93495604D01*
X100704822Y-94251413D01*
X100976065Y-94906251D01*
X101267512Y-95041067D01*
X102458579Y-93850000D01*
X102741421Y-93850000D01*
X103932488Y-95041067D01*
X104223935Y-94906251D01*
X104504530Y-94204396D01*
X104495178Y-93448587D01*
X104223935Y-92793749D01*
X103932488Y-92658933D01*
X102741421Y-93850000D01*
X102458579Y-93850000D01*
X101267512Y-92658933D01*
X100976065Y-92793749D01*
X100695470Y-93495604D01*
X100650500Y-93495604D01*
X100650500Y-92517512D01*
X101408933Y-92517512D01*
X102600000Y-93708579D01*
X103791067Y-92517512D01*
X103656251Y-92226065D01*
X102954396Y-91945470D01*
X102198587Y-91954822D01*
X101543749Y-92226065D01*
X101408933Y-92517512D01*
X100650500Y-92517512D01*
X100650500Y-87450847D01*
X101294568Y-87000000D01*
X102139872Y-87000000D01*
X102380237Y-87099808D01*
G36*
X106359865Y-80199950D02*
X106351780Y-80199950D01*
X106201780Y-80349950D01*
X106201780Y-81100000D01*
X106221780Y-81100000D01*
X106221780Y-81300000D01*
X106201780Y-81300000D01*
X106201780Y-82050050D01*
X106314830Y-82163100D01*
X105645615Y-83100000D01*
X101387360Y-83100000D01*
X100650500Y-82631089D01*
X100650500Y-82482488D01*
X101408933Y-82482488D01*
X101543749Y-82773935D01*
X102245604Y-83054530D01*
X103001413Y-83045178D01*
X103656251Y-82773935D01*
X103791067Y-82482488D01*
X102600000Y-81291421D01*
X101408933Y-82482488D01*
X100650500Y-82482488D01*
X100650500Y-80795604D01*
X100695470Y-80795604D01*
X100704822Y-81551413D01*
X100976065Y-82206251D01*
X101267512Y-82341067D01*
X102458579Y-81150000D01*
X102741421Y-81150000D01*
X103932488Y-82341067D01*
X104223935Y-82206251D01*
X104504530Y-81504396D01*
X104503857Y-81450000D01*
X105101730Y-81450000D01*
X105101730Y-81719397D01*
X105193074Y-81939922D01*
X105361857Y-82108705D01*
X105582382Y-82200050D01*
X105851780Y-82200050D01*
X106001780Y-82050050D01*
X106001780Y-81300000D01*
X105251730Y-81300000D01*
X105101730Y-81450000D01*
X104503857Y-81450000D01*
X104495178Y-80748587D01*
X104467019Y-80680603D01*
X105101730Y-80680603D01*
X105101730Y-80950000D01*
X105251730Y-81100000D01*
X106001780Y-81100000D01*
X106001780Y-80349950D01*
X105851780Y-80199950D01*
X105582382Y-80199950D01*
X105361857Y-80291295D01*
X105193074Y-80460078D01*
X105101730Y-80680603D01*
X104467019Y-80680603D01*
X104223935Y-80093749D01*
X103932488Y-79958933D01*
X102741421Y-81150000D01*
X102458579Y-81150000D01*
X101267512Y-79958933D01*
X100976065Y-80093749D01*
X100695470Y-80795604D01*
X100650500Y-80795604D01*
X100650500Y-79817512D01*
X101408933Y-79817512D01*
X102600000Y-81008579D01*
X103791067Y-79817512D01*
X103656251Y-79526065D01*
X102954396Y-79245470D01*
X102198587Y-79254822D01*
X101543749Y-79526065D01*
X101408933Y-79817512D01*
X100650500Y-79817512D01*
X100650500Y-79700942D01*
X101214060Y-79200000D01*
X105645615Y-79200000D01*
X106359865Y-80199950D01*
X106359865Y-80199950D01*
G37*
X106359865Y-80199950D02*
X106351780Y-80199950D01*
X106201780Y-80349950D01*
X106201780Y-81100000D01*
X106221780Y-81100000D01*
X106221780Y-81300000D01*
X106201780Y-81300000D01*
X106201780Y-82050050D01*
X106314830Y-82163100D01*
X105645615Y-83100000D01*
X101387360Y-83100000D01*
X100650500Y-82631089D01*
X100650500Y-82482488D01*
X101408933Y-82482488D01*
X101543749Y-82773935D01*
X102245604Y-83054530D01*
X103001413Y-83045178D01*
X103656251Y-82773935D01*
X103791067Y-82482488D01*
X102600000Y-81291421D01*
X101408933Y-82482488D01*
X100650500Y-82482488D01*
X100650500Y-80795604D01*
X100695470Y-80795604D01*
X100704822Y-81551413D01*
X100976065Y-82206251D01*
X101267512Y-82341067D01*
X102458579Y-81150000D01*
X102741421Y-81150000D01*
X103932488Y-82341067D01*
X104223935Y-82206251D01*
X104504530Y-81504396D01*
X104503857Y-81450000D01*
X105101730Y-81450000D01*
X105101730Y-81719397D01*
X105193074Y-81939922D01*
X105361857Y-82108705D01*
X105582382Y-82200050D01*
X105851780Y-82200050D01*
X106001780Y-82050050D01*
X106001780Y-81300000D01*
X105251730Y-81300000D01*
X105101730Y-81450000D01*
X104503857Y-81450000D01*
X104495178Y-80748587D01*
X104467019Y-80680603D01*
X105101730Y-80680603D01*
X105101730Y-80950000D01*
X105251730Y-81100000D01*
X106001780Y-81100000D01*
X106001780Y-80349950D01*
X105851780Y-80199950D01*
X105582382Y-80199950D01*
X105361857Y-80291295D01*
X105193074Y-80460078D01*
X105101730Y-80680603D01*
X104467019Y-80680603D01*
X104223935Y-80093749D01*
X103932488Y-79958933D01*
X102741421Y-81150000D01*
X102458579Y-81150000D01*
X101267512Y-79958933D01*
X100976065Y-80093749D01*
X100695470Y-80795604D01*
X100650500Y-80795604D01*
X100650500Y-79817512D01*
X101408933Y-79817512D01*
X102600000Y-81008579D01*
X103791067Y-79817512D01*
X103656251Y-79526065D01*
X102954396Y-79245470D01*
X102198587Y-79254822D01*
X101543749Y-79526065D01*
X101408933Y-79817512D01*
X100650500Y-79817512D01*
X100650500Y-79700942D01*
X101214060Y-79200000D01*
X105645615Y-79200000D01*
X106359865Y-80199950D01*
G36*
X106400000Y-86000000D02*
X105548528Y-86000000D01*
X105608656Y-85939872D01*
X105700000Y-85719347D01*
X105700000Y-85500000D01*
X105550000Y-85350000D01*
X104450000Y-85350000D01*
X104450000Y-85370000D01*
X104250000Y-85370000D01*
X104250000Y-85350000D01*
X104230000Y-85350000D01*
X104230000Y-85150000D01*
X104250000Y-85150000D01*
X104250000Y-84450000D01*
X104450000Y-84450000D01*
X104450000Y-85150000D01*
X105550000Y-85150000D01*
X105700000Y-85000000D01*
X105700000Y-84780653D01*
X105608656Y-84560128D01*
X105439873Y-84391345D01*
X105219348Y-84300000D01*
X104600000Y-84300000D01*
X104450000Y-84450000D01*
X104250000Y-84450000D01*
X104100000Y-84300000D01*
X103800000Y-84300000D01*
X103800000Y-84100000D01*
X106400000Y-84100000D01*
X106400000Y-86000000D01*
X106400000Y-86000000D01*
G37*
X106400000Y-86000000D02*
X105548528Y-86000000D01*
X105608656Y-85939872D01*
X105700000Y-85719347D01*
X105700000Y-85500000D01*
X105550000Y-85350000D01*
X104450000Y-85350000D01*
X104450000Y-85370000D01*
X104250000Y-85370000D01*
X104250000Y-85350000D01*
X104230000Y-85350000D01*
X104230000Y-85150000D01*
X104250000Y-85150000D01*
X104250000Y-84450000D01*
X104450000Y-84450000D01*
X104450000Y-85150000D01*
X105550000Y-85150000D01*
X105700000Y-85000000D01*
X105700000Y-84780653D01*
X105608656Y-84560128D01*
X105439873Y-84391345D01*
X105219348Y-84300000D01*
X104600000Y-84300000D01*
X104450000Y-84450000D01*
X104250000Y-84450000D01*
X104100000Y-84300000D01*
X103800000Y-84300000D01*
X103800000Y-84100000D01*
X106400000Y-84100000D01*
X106400000Y-86000000D01*
G36*
X124972823Y-93928599D02*
X125113738Y-94225241D01*
X125833685Y-94514176D01*
X126609399Y-94505606D01*
X127286262Y-94225241D01*
X127427176Y-93928600D01*
X127531011Y-94032435D01*
X127600000Y-93963446D01*
X127600000Y-98139445D01*
X127209168Y-98400000D01*
X123700000Y-98400000D01*
X123700000Y-97950000D01*
X123550000Y-97800000D01*
X122400000Y-97800000D01*
X122400000Y-97820000D01*
X122200000Y-97820000D01*
X122200000Y-97800000D01*
X121050000Y-97800000D01*
X120900000Y-97950000D01*
X120900000Y-98400000D01*
X120700000Y-98400000D01*
X120700000Y-96580653D01*
X120900000Y-96580653D01*
X120900000Y-97450000D01*
X121050000Y-97600000D01*
X122200000Y-97600000D01*
X122200000Y-96250000D01*
X122400000Y-96250000D01*
X122400000Y-97600000D01*
X123550000Y-97600000D01*
X123700000Y-97450000D01*
X123700000Y-96580653D01*
X123608656Y-96360128D01*
X123439873Y-96191345D01*
X123219348Y-96100000D01*
X122550000Y-96100000D01*
X122400000Y-96250000D01*
X122200000Y-96250000D01*
X122050000Y-96100000D01*
X121380652Y-96100000D01*
X121160127Y-96191345D01*
X120991344Y-96360128D01*
X120900000Y-96580653D01*
X120700000Y-96580653D01*
X120700000Y-96207900D01*
X121254401Y-96000000D01*
X123700000Y-96000000D01*
X123816717Y-95976364D01*
X123912132Y-95912132D01*
X124312132Y-95512132D01*
X124377950Y-95412888D01*
X124400000Y-95300000D01*
X124400000Y-93320924D01*
X124534759Y-93646262D01*
X124831401Y-93787177D01*
X125718579Y-92900000D01*
X126001421Y-92900000D01*
X124972823Y-93928599D01*
X124972823Y-93928599D01*
G37*
X124972823Y-93928599D02*
X125113738Y-94225241D01*
X125833685Y-94514176D01*
X126609399Y-94505606D01*
X127286262Y-94225241D01*
X127427176Y-93928600D01*
X127531011Y-94032435D01*
X127600000Y-93963446D01*
X127600000Y-98139445D01*
X127209168Y-98400000D01*
X123700000Y-98400000D01*
X123700000Y-97950000D01*
X123550000Y-97800000D01*
X122400000Y-97800000D01*
X122400000Y-97820000D01*
X122200000Y-97820000D01*
X122200000Y-97800000D01*
X121050000Y-97800000D01*
X120900000Y-97950000D01*
X120900000Y-98400000D01*
X120700000Y-98400000D01*
X120700000Y-96580653D01*
X120900000Y-96580653D01*
X120900000Y-97450000D01*
X121050000Y-97600000D01*
X122200000Y-97600000D01*
X122200000Y-96250000D01*
X122400000Y-96250000D01*
X122400000Y-97600000D01*
X123550000Y-97600000D01*
X123700000Y-97450000D01*
X123700000Y-96580653D01*
X123608656Y-96360128D01*
X123439873Y-96191345D01*
X123219348Y-96100000D01*
X122550000Y-96100000D01*
X122400000Y-96250000D01*
X122200000Y-96250000D01*
X122050000Y-96100000D01*
X121380652Y-96100000D01*
X121160127Y-96191345D01*
X120991344Y-96360128D01*
X120900000Y-96580653D01*
X120700000Y-96580653D01*
X120700000Y-96207900D01*
X121254401Y-96000000D01*
X123700000Y-96000000D01*
X123816717Y-95976364D01*
X123912132Y-95912132D01*
X124312132Y-95512132D01*
X124377950Y-95412888D01*
X124400000Y-95300000D01*
X124400000Y-93320924D01*
X124534759Y-93646262D01*
X124831401Y-93787177D01*
X125718579Y-92900000D01*
X126001421Y-92900000D01*
X124972823Y-93928599D01*
G36*
X109700000Y-80600000D02*
X109100810Y-80600000D01*
X109100810Y-80500000D01*
X108950810Y-80350000D01*
X108200760Y-80350000D01*
X108200760Y-80370000D01*
X108000760Y-80370000D01*
X108000760Y-80350000D01*
X107980760Y-80350000D01*
X107980760Y-80150000D01*
X108000760Y-80150000D01*
X108000760Y-79399950D01*
X108200760Y-79399950D01*
X108200760Y-80150000D01*
X108950810Y-80150000D01*
X109100810Y-80000000D01*
X109100810Y-79730603D01*
X109009466Y-79510078D01*
X108840683Y-79341295D01*
X108620158Y-79249950D01*
X108350760Y-79249950D01*
X108200760Y-79399950D01*
X108000760Y-79399950D01*
X107850760Y-79249950D01*
X107600000Y-79249950D01*
X107600000Y-77800000D01*
X109700000Y-77800000D01*
X109700000Y-80600000D01*
X109700000Y-80600000D01*
G37*
X109700000Y-80600000D02*
X109100810Y-80600000D01*
X109100810Y-80500000D01*
X108950810Y-80350000D01*
X108200760Y-80350000D01*
X108200760Y-80370000D01*
X108000760Y-80370000D01*
X108000760Y-80350000D01*
X107980760Y-80350000D01*
X107980760Y-80150000D01*
X108000760Y-80150000D01*
X108000760Y-79399950D01*
X108200760Y-79399950D01*
X108200760Y-80150000D01*
X108950810Y-80150000D01*
X109100810Y-80000000D01*
X109100810Y-79730603D01*
X109009466Y-79510078D01*
X108840683Y-79341295D01*
X108620158Y-79249950D01*
X108350760Y-79249950D01*
X108200760Y-79399950D01*
X108000760Y-79399950D01*
X107850760Y-79249950D01*
X107600000Y-79249950D01*
X107600000Y-77800000D01*
X109700000Y-77800000D01*
X109700000Y-80600000D01*
G36*
X127568599Y-83627177D02*
X127700000Y-83564757D01*
X127700000Y-87655812D01*
X127394765Y-87900000D01*
X126998270Y-87900000D01*
X126998270Y-87850000D01*
X126848270Y-87700000D01*
X126098220Y-87700000D01*
X126098220Y-87720000D01*
X125898220Y-87720000D01*
X125898220Y-87700000D01*
X125878220Y-87700000D01*
X125878220Y-87500000D01*
X125898220Y-87500000D01*
X125898220Y-86749950D01*
X126098220Y-86749950D01*
X126098220Y-87500000D01*
X126848270Y-87500000D01*
X126998270Y-87350000D01*
X126998270Y-87080603D01*
X126906926Y-86860078D01*
X126738143Y-86691295D01*
X126517618Y-86599950D01*
X126248220Y-86599950D01*
X126098220Y-86749950D01*
X125898220Y-86749950D01*
X125748220Y-86599950D01*
X125478822Y-86599950D01*
X125258297Y-86691295D01*
X125100000Y-86849592D01*
X125100000Y-85000000D01*
X125075744Y-84881824D01*
X124598648Y-83768599D01*
X124972823Y-83768599D01*
X125113738Y-84065241D01*
X125833685Y-84354176D01*
X126609399Y-84345606D01*
X127286262Y-84065241D01*
X127427177Y-83768599D01*
X126200000Y-82541421D01*
X124972823Y-83768599D01*
X124598648Y-83768599D01*
X124500000Y-83538421D01*
X124500000Y-83402346D01*
X124534759Y-83486262D01*
X124831401Y-83627177D01*
X125958579Y-82500000D01*
X126441421Y-82500000D01*
X127568599Y-83627177D01*
X127568599Y-83627177D01*
G37*
X127568599Y-83627177D02*
X127700000Y-83564757D01*
X127700000Y-87655812D01*
X127394765Y-87900000D01*
X126998270Y-87900000D01*
X126998270Y-87850000D01*
X126848270Y-87700000D01*
X126098220Y-87700000D01*
X126098220Y-87720000D01*
X125898220Y-87720000D01*
X125898220Y-87700000D01*
X125878220Y-87700000D01*
X125878220Y-87500000D01*
X125898220Y-87500000D01*
X125898220Y-86749950D01*
X126098220Y-86749950D01*
X126098220Y-87500000D01*
X126848270Y-87500000D01*
X126998270Y-87350000D01*
X126998270Y-87080603D01*
X126906926Y-86860078D01*
X126738143Y-86691295D01*
X126517618Y-86599950D01*
X126248220Y-86599950D01*
X126098220Y-86749950D01*
X125898220Y-86749950D01*
X125748220Y-86599950D01*
X125478822Y-86599950D01*
X125258297Y-86691295D01*
X125100000Y-86849592D01*
X125100000Y-85000000D01*
X125075744Y-84881824D01*
X124598648Y-83768599D01*
X124972823Y-83768599D01*
X125113738Y-84065241D01*
X125833685Y-84354176D01*
X126609399Y-84345606D01*
X127286262Y-84065241D01*
X127427177Y-83768599D01*
X126200000Y-82541421D01*
X124972823Y-83768599D01*
X124598648Y-83768599D01*
X124500000Y-83538421D01*
X124500000Y-83402346D01*
X124534759Y-83486262D01*
X124831401Y-83627177D01*
X125958579Y-82500000D01*
X126441421Y-82500000D01*
X127568599Y-83627177D01*
M02*
