M48
;DRILL file {KiCad 4.0.3-stable} date 2016 September 06, Tuesday 12:50:11
;FORMAT={-:-/ absolute / metric / decimal}
FMAT,2
METRIC,TZ
T1C0.550
T2C1.016
T3C1.020
T4C1.199
T5C0.900
%
G90
G05
M71
T1
X104.4Y-84.2
X105.9Y-84.2
X105.9Y-85.3
X106.8Y-91.7
X108.1Y-78.1
X108.1Y-79.1
X108.8Y-84.1
X109.3Y-78.1
X109.3Y-79.2
X109.3Y-80.2
X115.Y-80.4
X119.1Y-83.1
X120.4Y-91.2
X122.3Y-90.2
X122.3Y-91.3
X124.Y-90.2
X126.Y-96.7
T2
X111.6Y-76.9
X114.14Y-76.9
X116.68Y-76.9
X119.22Y-76.9
T3
X102.6Y-81.15
X102.6Y-93.85
T4
X126.2Y-82.4
X126.2Y-92.56
T5
X102.6Y-86.
X102.6Y-89.
T0
M30
